<svg width="1600" height="260" viewBox="0 0 1600 260" fill="none" xmlns="http://www.w3.org/2000/svg">
<path d="M0 255.851L26.6026 236.835V19.0159L0 0H101.228L69.7886 19.0159V114.441H187.254V19.0159L156.161 0H257.388L230.786 19.0159V236.835L257.388 255.851H156.161L187.254 236.835V121.356H69.7886V236.835L101.228 255.851H0Z" fill="white"/>
<path d="M366.633 260C315.846 260 274.042 217.819 274.042 165.957C274.042 115.824 315.846 74.6808 366.633 74.6808C417.419 74.6808 458.533 115.824 458.533 165.957C458.533 217.819 417.419 260 366.633 260ZM366.633 254.468C397.036 254.468 414.656 223.351 414.656 166.303C414.656 111.33 397.381 80.2128 366.633 80.2128C335.539 80.2128 318.264 110.293 318.264 166.303C318.264 222.66 335.539 254.468 366.633 254.468Z" fill="white"/>
<path d="M475.456 255.851L497.222 240.638V113.059L473.038 103.378L538.335 74.6808V108.564C551.118 91.2766 570.12 74.6808 590.503 74.6808C607.778 74.6808 619.524 85.0532 619.524 99.5745C619.524 112.367 611.578 121.011 600.523 121.011C580.139 121.011 578.411 96.8085 564.937 96.8085C554.918 96.8085 545.245 107.527 538.335 117.207V240.638L563.901 255.851H475.456Z" fill="white"/>
<path d="M700.46 260C681.459 260 657.274 256.888 639.655 251.356V244.787L630.672 186.011C641.728 214.362 670.403 253.777 707.025 253.777C727.063 253.777 741.228 240.984 741.228 222.314C741.228 177.021 636.891 195.346 636.891 130.691C636.891 98.5372 664.53 74.6808 704.606 74.6808C723.263 74.6808 742.955 78.8298 756.084 85.0532V91.2766L762.994 139.681C745.374 105.798 724.299 80.9042 695.969 80.9042C676.622 80.9042 662.802 92.6596 662.802 109.601C662.802 154.202 767.485 134.495 767.485 203.298C767.485 236.489 741.574 260 700.46 260Z" fill="white"/>
<path d="M857.01 260C826.607 260 806.914 242.713 807.95 213.67L812.787 106.489L780.311 94.734L807.95 72.2606V48.4042L849.754 29.3883V82.9787H908.142V97.5H849.754V211.25C849.754 227.5 862.192 238.564 881.194 238.564C895.704 238.564 911.942 230.266 920.925 217.819C907.451 242.367 881.885 260 857.01 260Z" fill="white"/>
<path d="M923.511 255.851L945.276 240.638V113.059L921.092 103.378L986.389 74.6808V108.564C999.172 91.2766 1018.17 74.6808 1038.56 74.6808C1055.83 74.6808 1067.58 85.0532 1067.58 99.5745C1067.58 112.367 1059.63 121.011 1048.58 121.011C1028.19 121.011 1026.47 96.8085 1012.99 96.8085C1002.97 96.8085 993.299 107.527 986.389 117.207V240.638L1011.96 255.851H923.511Z" fill="white"/>
<path d="M1121.56 260C1097.37 260 1080.79 244.787 1080.79 223.351C1080.79 189.468 1143.67 166.649 1190.66 146.25V129.654C1190.66 104.761 1175.11 87.1276 1153.69 87.1276C1145.74 87.1276 1139.18 88.8564 1132.27 93.3511C1112.58 106.144 1125.01 152.473 1097.37 152.473C1087.01 152.473 1079.75 144.521 1079.75 133.457C1079.75 103.378 1150.58 74.6808 1176.49 74.6808C1209.31 74.6808 1231.42 96.4628 1231.42 128.271V228.537L1254.23 235.106L1190.66 260V219.894C1170.27 242.021 1146.43 260 1121.56 260ZM1148.85 237.872C1164.05 237.872 1177.87 226.463 1190.66 211.941V152.128C1152.65 168.032 1121.21 184.628 1121.21 210.558C1121.21 226.808 1132.61 237.872 1148.85 237.872Z" fill="white"/>
<path d="M1350.25 260C1301.19 260 1266.64 225.08 1266.64 170.798C1266.64 114.096 1303.61 74.6808 1353.36 74.6808C1389.64 74.6808 1417.62 93.351 1417.62 114.096C1417.62 124.814 1410.71 132.42 1401.04 132.42C1371.67 132.42 1383.77 80.2128 1353.36 80.2128C1326.41 80.2128 1308.1 111.676 1308.1 153.511C1308.1 198.457 1331.94 229.92 1368.56 229.92C1396.55 229.92 1415.9 214.362 1425.57 182.553C1418.31 230.957 1389.64 260 1350.25 260Z" fill="white"/>
<path d="M1524.68 260C1475.62 260 1441.08 224.734 1441.08 171.489C1441.08 114.787 1476.66 74.6808 1525.72 74.6808C1566.83 74.6808 1594.82 101.649 1594.82 141.41V144.176H1482.88C1482.88 147.979 1482.53 151.436 1482.53 155.239C1482.53 199.495 1506.37 230.957 1542.99 230.957C1570.98 230.957 1590.33 214.362 1600 182.553C1592.74 230.957 1564.07 260 1524.68 260ZM1483.57 138.644H1544.38C1553.01 138.644 1556.12 133.112 1556.12 124.468C1556.12 100.957 1543.34 80.2128 1525.72 80.2128C1504.3 80.2128 1487.72 103.378 1483.57 138.644Z" fill="white"/>
</svg>
